<svg width="58" height="54" viewBox="0 0 58 54" fill="none" xmlns="http://www.w3.org/2000/svg">
<g filter="url(#filter0_d_320_7)">
<ellipse cx="29" cy="23" rx="25" ry="23" fill="white"/>
</g>
<path d="M28.1695 18.0438L20.1673 24.6345V31.7478C20.1673 31.932 20.2405 32.1086 20.3707 32.2389C20.5009 32.3691 20.6776 32.4423 20.8618 32.4423L25.7255 32.4297C25.9091 32.4288 26.0848 32.3552 26.2143 32.2251C26.3438 32.0949 26.4165 31.9188 26.4164 31.7352V27.5812C26.4164 27.397 26.4896 27.2203 26.6198 27.0901C26.7501 26.9599 26.9267 26.8867 27.1109 26.8867H29.8887C30.0728 26.8867 30.2495 26.9599 30.3797 27.0901C30.51 27.2203 30.5831 27.397 30.5831 27.5812V31.7322C30.5828 31.8236 30.6006 31.9141 30.6354 31.9986C30.6701 32.0831 30.7212 32.1599 30.7857 32.2247C30.8503 32.2894 30.9269 32.3407 31.0113 32.3758C31.0957 32.4108 31.1862 32.4288 31.2776 32.4288L36.1395 32.4423C36.3237 32.4423 36.5004 32.3691 36.6306 32.2389C36.7608 32.1086 36.834 31.932 36.834 31.7478V24.6298L28.8335 18.0438C28.7395 17.968 28.6223 17.9267 28.5015 17.9267C28.3807 17.9267 28.2635 17.968 28.1695 18.0438ZM40.8097 22.5234L37.1812 19.5326V13.5208C37.1812 13.3827 37.1263 13.2502 37.0287 13.1525C36.931 13.0549 36.7985 13 36.6604 13H34.2298C34.0917 13 33.9592 13.0549 33.8615 13.1525C33.7639 13.2502 33.709 13.3827 33.709 13.5208V16.6723L29.8231 13.4753C29.4502 13.1684 28.9823 13.0006 28.4993 13.0006C28.0164 13.0006 27.5485 13.1684 27.1756 13.4753L16.189 22.5234C16.1363 22.567 16.0926 22.6206 16.0606 22.681C16.0286 22.7415 16.0088 22.8077 16.0023 22.8758C15.9959 22.9439 16.0029 23.0126 16.023 23.078C16.0431 23.1434 16.076 23.2042 16.1196 23.2569L17.2263 24.6024C17.2698 24.6553 17.3234 24.6991 17.3838 24.7313C17.4443 24.7635 17.5105 24.7835 17.5786 24.79C17.6468 24.7966 17.7156 24.7897 17.7811 24.7696C17.8466 24.7496 17.9075 24.7168 17.9603 24.6732L28.1695 16.2643C28.2635 16.1885 28.3807 16.1472 28.5015 16.1472C28.6223 16.1472 28.7395 16.1885 28.8335 16.2643L39.0432 24.6732C39.0959 24.7168 39.1567 24.7496 39.2221 24.7697C39.2875 24.7898 39.3562 24.7969 39.4243 24.7904C39.4924 24.784 39.5586 24.7642 39.6191 24.7321C39.6795 24.7001 39.7331 24.6565 39.7767 24.6037L40.8835 23.2582C40.927 23.2052 40.9597 23.1441 40.9796 23.0784C40.9995 23.0128 41.0062 22.9438 40.9993 22.8755C40.9925 22.8072 40.9722 22.741 40.9396 22.6805C40.9071 22.6201 40.8629 22.5667 40.8097 22.5234Z" fill="#64A555"/>
<defs>
<filter id="filter0_d_320_7" x="0" y="0" width="58" height="54" filterUnits="userSpaceOnUse" color-interpolation-filters="sRGB">
<feFlood flood-opacity="0" result="BackgroundImageFix"/>
<feColorMatrix in="SourceAlpha" type="matrix" values="0 0 0 0 0 0 0 0 0 0 0 0 0 0 0 0 0 0 127 0" result="hardAlpha"/>
<feOffset dy="4"/>
<feGaussianBlur stdDeviation="2"/>
<feComposite in2="hardAlpha" operator="out"/>
<feColorMatrix type="matrix" values="0 0 0 0 0 0 0 0 0 0 0 0 0 0 0 0 0 0 0.25 0"/>
<feBlend mode="normal" in2="BackgroundImageFix" result="effect1_dropShadow_320_7"/>
<feBlend mode="normal" in="SourceGraphic" in2="effect1_dropShadow_320_7" result="shape"/>
</filter>
</defs>
</svg>
