<svg width="50" height="46" viewBox="0 0 50 46" fill="none" xmlns="http://www.w3.org/2000/svg">
<g filter="url(#filter0_i_320_7)">
<ellipse cx="25" cy="23" rx="25" ry="23" fill="#64A555"/>
</g>
<path d="M49.5 23C49.5 35.388 38.571 45.5 25 45.5C11.429 45.5 0.5 35.388 0.5 23C0.5 10.612 11.429 0.5 25 0.5C38.571 0.5 49.5 10.612 49.5 23Z" stroke="#008D00"/>
<path d="M24.1695 18.0438L16.1673 24.6345V31.7478C16.1673 31.932 16.2405 32.1086 16.3707 32.2389C16.5009 32.3691 16.6776 32.4423 16.8618 32.4423L21.7255 32.4297C21.9091 32.4288 22.0848 32.3552 22.2143 32.2251C22.3438 32.0949 22.4165 31.9188 22.4164 31.7352V27.5812C22.4164 27.397 22.4896 27.2203 22.6198 27.0901C22.7501 26.9599 22.9267 26.8867 23.1109 26.8867H25.8887C26.0728 26.8867 26.2495 26.9599 26.3797 27.0901C26.51 27.2203 26.5831 27.397 26.5831 27.5812V31.7322C26.5828 31.8236 26.6006 31.9141 26.6354 31.9986C26.6701 32.0831 26.7212 32.1599 26.7857 32.2247C26.8503 32.2894 26.9269 32.3407 27.0113 32.3758C27.0957 32.4108 27.1862 32.4288 27.2776 32.4288L32.1395 32.4423C32.3237 32.4423 32.5004 32.3691 32.6306 32.2389C32.7608 32.1086 32.834 31.932 32.834 31.7478V24.6298L24.8335 18.0438C24.7395 17.968 24.6223 17.9267 24.5015 17.9267C24.3807 17.9267 24.2635 17.968 24.1695 18.0438ZM36.8097 22.5234L33.1812 19.5326V13.5208C33.1812 13.3827 33.1263 13.2502 33.0287 13.1525C32.931 13.0549 32.7985 13 32.6604 13H30.2298C30.0917 13 29.9592 13.0549 29.8615 13.1525C29.7639 13.2502 29.709 13.3827 29.709 13.5208V16.6723L25.8231 13.4753C25.4502 13.1684 24.9823 13.0006 24.4993 13.0006C24.0164 13.0006 23.5485 13.1684 23.1756 13.4753L12.189 22.5234C12.1363 22.567 12.0926 22.6206 12.0606 22.681C12.0286 22.7415 12.0088 22.8077 12.0023 22.8758C11.9959 22.9439 12.0029 23.0126 12.023 23.078C12.0431 23.1434 12.076 23.2042 12.1196 23.2569L13.2263 24.6024C13.2698 24.6553 13.3234 24.6991 13.3838 24.7313C13.4443 24.7635 13.5105 24.7835 13.5786 24.79C13.6468 24.7966 13.7156 24.7897 13.7811 24.7696C13.8466 24.7496 13.9075 24.7168 13.9603 24.6732L24.1695 16.2643C24.2635 16.1885 24.3807 16.1472 24.5015 16.1472C24.6223 16.1472 24.7395 16.1885 24.8335 16.2643L35.0432 24.6732C35.0959 24.7168 35.1567 24.7496 35.2221 24.7697C35.2875 24.7898 35.3562 24.7969 35.4243 24.7904C35.4924 24.784 35.5586 24.7642 35.6191 24.7321C35.6795 24.7001 35.7331 24.6565 35.7767 24.6037L36.8835 23.2582C36.927 23.2052 36.9597 23.1441 36.9796 23.0784C36.9995 23.0128 37.0062 22.9438 36.9993 22.8755C36.9925 22.8072 36.9722 22.741 36.9396 22.6805C36.9071 22.6201 36.8629 22.5667 36.8097 22.5234Z" fill="white"/>
<defs>
<filter id="filter0_i_320_7" x="0" y="0" width="50" height="50" filterUnits="userSpaceOnUse" color-interpolation-filters="sRGB">
<feFlood flood-opacity="0" result="BackgroundImageFix"/>
<feBlend mode="normal" in="SourceGraphic" in2="BackgroundImageFix" result="shape"/>
<feColorMatrix in="SourceAlpha" type="matrix" values="0 0 0 0 0 0 0 0 0 0 0 0 0 0 0 0 0 0 127 0" result="hardAlpha"/>
<feOffset dy="4"/>
<feGaussianBlur stdDeviation="2"/>
<feComposite in2="hardAlpha" operator="arithmetic" k2="-1" k3="1"/>
<feColorMatrix type="matrix" values="0 0 0 0 0 0 0 0 0 0 0 0 0 0 0 0 0 0 0.25 0"/>
<feBlend mode="normal" in2="shape" result="effect1_innerShadow_320_7"/>
</filter>
</defs>
</svg>
